<?xml version="1.0" encoding="UTF-8" standalone="no"?>
<svg
   width="852.20911"
   height="144.9537"
   viewBox="0 0 852.20911 144.9537"
   version="1.1"
   id="svg5"
   sodipodi:docname="gridvju-2-nc-bright.svg"
   inkscape:version="1.2.1 (9c6d41e410, 2022-07-14, custom)"
   xmlns:inkscape="http://www.inkscape.org/namespaces/inkscape"
   xmlns:sodipodi="http://sodipodi.sourceforge.net/DTD/sodipodi-0.dtd"
   xmlns="http://www.w3.org/2000/svg"
   xmlns:svg="http://www.w3.org/2000/svg">
  <defs
     id="defs1453" />
  <sodipodi:namedview
     id="namedview1451"
     pagecolor="#01164d"
     bordercolor="#000000"
     borderopacity="0.25"
     inkscape:showpageshadow="2"
     inkscape:pageopacity="0"
     inkscape:pagecheckerboard="0"
     inkscape:deskcolor="#d1d1d1"
     showgrid="false"
     inkscape:zoom="1.0573456"
     inkscape:cx="214.21567"
     inkscape:cy="74.242518"
     inkscape:window-width="2558"
     inkscape:window-height="1413"
     inkscape:window-x="2560"
     inkscape:window-y="0"
     inkscape:window-maximized="1"
     inkscape:current-layer="svg5"
     showguides="true" />
  <path
     d="M 567.5664,142.473 H 556.8421 L 493.1582,0.9537 h 15.4563 l 53.6505,115.196 53.1778,-115.196 h 15.4495 L 567.5664,142.473"
     style="fill:#ffffff;fill-opacity:1;fill-rule:nonzero;stroke:none;stroke-width:0.121535"
     id="path6631" />
  <path
     d="m 645.5884,144.9535 c -6.9689,0 -13.6801,-1.3127 -19.9464,-3.9039 -6.1897,-2.5585 -11.9103,-6.1399 -17.0028,-10.6462 l -3.6447,-3.2247 10.6015,-10.6039 3.2377,3.1468 c 3.4686,3.3733 7.5559,6.1727 12.1486,8.3175 4.4335,2.0758 9.3473,3.1273 14.6061,3.1273 5.7243,0 11.1375,-1.1195 16.0901,-3.3259 5.013,-2.2353 9.4335,-5.2967 13.144,-9.1056 3.7129,-3.8086 6.6796,-8.3143 8.8234,-13.3944 2.121,-5.0289 3.1964,-10.4421 3.1964,-16.0887 V 14.9083 H 672.201 V 1.1214 h 28.7588 v 88.7923 c 0,7.6287 -1.3968,14.87 -4.1542,21.5241 -2.7588,6.6527 -6.6808,12.5509 -11.6626,17.5324 -4.9853,4.9854 -10.9405,8.9367 -17.6931,11.7453 -6.7707,2.8122 -14.1248,4.2381 -21.8617,4.2381"
     style="fill:#ffffff;fill-opacity:1;fill-rule:nonzero;stroke:none;stroke-width:0.121535"
     id="path6633" />
  <path
     d="m 838.0918,0.9537 v 83.9965 c 0,6.281 -1.2355,12.2875 -3.6704,17.8548 -2.4574,5.6139 -5.8592,10.5892 -10.1081,14.7922 -4.2571,4.2049 -9.289,7.5571 -14.9525,9.9621 -5.6308,2.3931 -11.7378,3.6073 -18.1464,3.6073 -6.5119,0 -12.6641,-1.2359 -18.2826,-3.6742 -5.6902,-2.4666 -10.7655,-5.8589 -15.0873,-10.0812 -4.2963,-4.193 -7.7175,-9.1637 -10.1725,-14.7751 -2.4355,-5.5602 -3.6694,-11.6237 -3.6694,-18.0176 V 0.9537 h -14.1174 v 83.0048 c 0,8.4163 1.5995,16.4244 4.7534,23.8015 3.1431,7.3542 7.54,13.8573 13.0674,19.3241 5.5116,5.4534 12.0514,9.8372 19.4396,13.0285 7.438,3.2111 15.5347,4.8411 24.0689,4.8411 8.5318,0 16.6054,-1.6311 23.9984,-4.8466 7.342,-3.1991 13.8319,-7.6192 19.2949,-13.1395 5.4593,-5.5214 9.8152,-12.0377 12.9483,-19.3712 3.1539,-7.3823 4.753,-15.3927 4.753,-23.8053 V 0.9537 h -14.1176"
     style="fill:#ffffff;fill-opacity:1;fill-rule:nonzero;stroke:none;stroke-width:0.121535"
     id="path6635" />
  <g
     aria-label=" GRID"
     id="text8392"
     style="font-size:217.32px;font-family:Arimo;-inkscape-font-specification:Arimo;fill:#25a3e3;stroke-width:6.03947"
     transform="translate(-1579.7454,-1167.0463)">
    <path
       d="m 1658.5332,1310.991 c -14.2954,0 -26.6092,-3.1846 -36.9417,-9.5538 -10.1906,-6.5108 -18.046,-15.2155 -23.566,-26.114 -5.52,-10.8984 -8.2801,-23 -8.2801,-36.3046 0,-13.3045 2.8308,-25.4061 8.4924,-36.3046 5.6614,-10.8985 13.6583,-19.5323 23.9908,-25.9016 10.4738,-6.5108 22.7169,-9.7661 36.7292,-9.7661 15.1446,0 28.237,3.7508 39.277,11.2522 11.1815,7.3601 19.3907,16.9139 24.6276,28.6616 h -17.4092 c -4.2462,-7.5015 -10.1908,-13.4461 -17.8338,-17.8338 -7.5016,-4.3877 -16.6308,-6.5816 -27.3877,-6.5816 -11.3231,0 -21.0892,2.5478 -29.2985,7.6432 -8.2093,4.9538 -14.5078,11.6769 -18.8955,20.1692 -4.2461,8.4923 -6.3692,18.0462 -6.3692,28.6615 0,10.4739 2.1231,20.0277 6.3692,28.6616 4.2462,8.4923 10.4031,15.2862 18.4708,20.3815 8.2093,4.9538 17.9754,7.4307 29.2984,7.4307 8.4924,0 16.3833,-2.3505 23.8849,-6.0305 7.0753,-4.3266 12.727,-9.1084 17.3976,-16.0437 4.3256,-6.9717 6.9758,-14.4176 8.3976,-24.4211 h -32.3654 v -14.4369 h 47.0147 l -0.015,14.8902 c 0,3.5744 -0.2714,17.5116 -9.7151,32.6176 -5.401,8.6394 -15.2636,19.3302 -30.8606,25.2121 -7.6909,2.9005 -16.5193,3.7109 -25.0115,3.7109 z"
       id="path10574"
       sodipodi:nodetypes="scssscsccccsccsccscccccccssss"
       style="stroke-width:5.90018;fill:#00ecf0;fill-opacity:1" />
    <path
       d="m 1754.1146,1309.2925 v -140.5478 h 67.3016 c 51.4906,0 55.133,61.2813 13.3754,66.2768 l 36.9416,74.271 h -18.8954 l -33.9693,-71.511 h -48.8308 v 71.511 z m 15.9231,-86.5849 h 53.172 c 34.7433,0 34.653,-38.889 0.8492,-38.889 h -54.0212 z"
       style="font-family:Questrial;-inkscape-font-specification:Questrial;stroke-width:5.90018;fill:#00ecf0;fill-opacity:1"
       id="path10576"
       sodipodi:nodetypes="ccccccccccccccc" />
    <path
       d="m 1889.4699,1309.2931 v -13.3654 h 14.4059 v -113.7546 h -14.4059 l 6e-4,-13.3654 h 28.3959 l -5e-4,13.3654 h 0.068 v 113.7546 h 0.045 v 13.3654 z"
       style="font-family:Questrial;-inkscape-font-specification:Questrial;stroke-width:5.90018;fill:#00ecf0;fill-opacity:1"
       id="path10578"
       sodipodi:nodetypes="ccccccccccccc" />
    <path
       d="m 1950.1426,1309.2925 v -140.5478 h 59.234 q 12.5262,0 23.9907,4.8832 11.6769,4.6706 20.8061,13.7999 9.1293,9.1293 14.437,22.08 5.3077,12.9508 5.3077,29.5108 0,16.56 -5.3077,29.5109 -5.3077,12.9507 -14.437,22.0799 -9.1292,9.1293 -20.8061,14.0124 -11.4645,4.6707 -23.9907,4.6707 z m 15.9231,-15.0738 h 42.6739 q 15.0738,0 26.1139,-7.643 11.04,-7.6433 16.9846,-20.1693 6.157,-12.5262 6.157,-27.3878 0,-15.0738 -6.157,-27.6 -5.9446,-12.5262 -16.9846,-19.9569 -11.0401,-7.6431 -26.1139,-7.6431 h -42.6739 z"
       style="font-family:Questrial;-inkscape-font-specification:Questrial;stroke-width:5.90018;fill:#00ecf0;fill-opacity:1"
       id="path10580" />
  </g>
  <text
     xml:space="preserve"
     style="font-style:normal;font-variant:normal;font-weight:normal;font-stretch:normal;font-size:204px;font-family:Arimo;-inkscape-font-specification:Arimo;fill:#25a3e3;fill-opacity:1;stroke:none;stroke-width:5.66929"
     x="-84.598793"
     y="-786.00006"
     id="text13542"><tspan
       sodipodi:role="line"
       id="tspan13540"
       x="-84.598793"
       y="-786.00006" /></text>
</svg>
